<?xml version="1.0" encoding="UTF-8"?>
<!DOCTYPE svg PUBLIC "-//W3C//DTD SVG 1.1//EN" "http://www.w3.org/Graphics/SVG/1.1/DTD/svg11.dtd">
<svg xmlns="http://www.w3.org/2000/svg" version="1.1" width="680px" height="212px" style="shape-rendering:geometricPrecision; text-rendering:geometricPrecision; image-rendering:optimizeQuality; fill-rule:evenodd; clip-rule:evenodd" xmlns:xlink="http://www.w3.org/1999/xlink">
<g><path style="opacity:0.691" fill="#9ab8fd" d="M 86.5,-0.5 C 99.5,-0.5 112.5,-0.5 125.5,-0.5C 175.334,11.5049 204.834,42.8383 214,93.5C 215.901,147.153 192.401,184.987 143.5,207C 137.297,208.305 131.297,209.805 125.5,211.5C 112.5,211.5 99.5,211.5 86.5,211.5C 76.9906,209.871 67.9906,206.871 59.5,202.5C 59.313,200.436 58.813,198.436 58,196.5C 56.7025,197.784 55.5358,197.617 54.5,196C 55.8333,195.667 57.1667,195.333 58.5,195C 57.944,194.617 57.6107,194.117 57.5,193.5C 78.181,204.062 100.181,207.562 123.5,204C 138.002,201.214 151.335,195.714 163.5,187.5C 167.6,187.316 169.934,185.649 170.5,182.5C 199.522,156.54 210.688,124.207 204,85.5C 194.921,48.4168 172.421,23.2501 136.5,10C 86.5519,-1.91837 47.3853,13.2483 19,55.5C 5.80579,80.766 2.80579,107.433 10,135.5C 16.2763,154.329 27.1097,170.162 42.5,183C 43.788,183.239 44.788,182.739 45.5,181.5C 45.5,182.833 45.5,184.167 45.5,185.5C 44.325,185.281 43.325,185.614 42.5,186.5C 43.5063,187.396 43.5063,188.062 42.5,188.5C 40.1851,187.766 38.3518,186.432 37,184.5C 36.5172,185.448 36.3505,186.448 36.5,187.5C 16.5592,171.258 4.22585,150.591 -0.5,125.5C -0.5,112.167 -0.5,98.8333 -0.5,85.5C 11.013,38.9862 40.013,10.3196 86.5,-0.5 Z M 170.5,182.5 C 168.643,181.398 167.309,179.731 166.5,177.5C 169.408,174.397 168.908,172.064 165,170.5C 164.228,170.645 163.561,170.978 163,171.5C 162.723,168.041 163.057,164.707 164,161.5C 161.959,160.577 159.792,160.244 157.5,160.5C 157.682,158.409 157.348,156.409 156.5,154.5C 169.674,140.787 176.34,124.453 176.5,105.5C 174.077,67.8963 154.41,44.7297 117.5,36C 91.1081,32.7097 69.1081,40.8763 51.5,60.5C 48.5596,61.3035 45.8929,62.6369 43.5,64.5C 42.6143,63.675 42.281,62.675 42.5,61.5C 44.4835,61.6168 46.1502,60.9501 47.5,59.5C 52.2892,52.5042 58.2892,46.6709 65.5,42C 65.0426,41.586 64.7093,41.086 64.5,40.5C 72.4338,41.0517 77.4338,37.5517 79.5,30C 77.1243,19.2328 71.1243,16.2328 61.5,21C 55.9132,27.4119 56.5799,33.2453 63.5,38.5C 63.1667,38.8333 62.8333,39.1667 62.5,39.5C 56.5249,36.6257 50.5249,33.959 44.5,31.5C 44.9735,37.5208 46.3068,43.3541 48.5,49C 48.1667,49.8333 47.8333,50.6667 47.5,51.5C 45.1667,49.5 42.8333,47.5 40.5,45.5C 39.6906,43.9291 39.3573,42.2624 39.5,40.5C 35.758,41.2177 32.758,43.2177 30.5,46.5C 29.5713,47.6888 29.238,49.0222 29.5,50.5C 31.3904,50.7035 32.8904,50.0368 34,48.5C 37.412,51.0751 40.2454,54.0751 42.5,57.5C 42.3333,58.1667 42.1667,58.8333 42,59.5C 36.2711,52.4557 29.9378,51.789 23,57.5C 19.4102,66.981 22.7435,72.6477 33,74.5C 38.2343,73.4823 43.0676,71.4823 47.5,68.5C 48.086,68.7093 48.586,69.0426 49,69.5C 61.7157,53.1315 78.3823,44.1315 99,42.5C 100.167,42.8333 101.333,43.1667 102.5,43.5C 100.603,45.4763 98.6033,47.3096 96.5,49C 83.2689,51.0493 70.9356,55.3826 59.5,62C 57.9632,63.1096 57.2965,64.6096 57.5,66.5C 68.0443,62.8715 78.711,59.8715 89.5,57.5C 90.8333,57.8333 92.1667,58.1667 93.5,58.5C 91.4714,61.5272 90.4714,64.8605 90.5,68.5C 75.1504,71.1677 60.8171,76.6677 47.5,85C 45.393,86.2635 44.393,88.0968 44.5,90.5C 51.9967,87.9115 59.33,85.0782 66.5,82C 73.305,79.5879 80.305,78.5879 87.5,79C 86.6233,81.9148 85.9566,84.9148 85.5,88C 85.2148,89.8895 84.2148,91.2229 82.5,92C 66.5201,95.8179 51.5201,102.151 37.5,111C 36.6634,112.011 36.33,113.178 36.5,114.5C 39.0661,114.656 41.5661,114.322 44,113.5C 56.9225,106.911 70.7558,102.911 85.5,101.5C 85.3626,105.179 86.0293,108.679 87.5,112C 74.3195,116.085 61.6528,121.585 49.5,128.5C 48.3192,130.198 48.3192,131.865 49.5,133.5C 61.9208,126.727 75.2542,123.06 89.5,122.5C 90.2034,126.647 91.2034,130.647 92.5,134.5C 82.4533,136.267 72.7866,139.434 63.5,144C 62,146.167 62.5,147.667 65,148.5C 80.4992,141.113 96.9992,138.447 114.5,140.5C 113.554,145.203 112.22,149.869 110.5,154.5C 110.709,155.086 111.043,155.586 111.5,156C 109.324,156.163 107.491,156.996 106,158.5C 103.112,156.014 100.279,156.014 97.5,158.5C 96.5,157.833 95.5,157.167 94.5,156.5C 92.322,157.657 90.322,158.99 88.5,160.5C 89.3202,162.111 90.6536,162.778 92.5,162.5C 92.2865,164.144 92.6198,165.644 93.5,167C 75.4667,165.495 61.1334,157.328 50.5,142.5C 49.2638,141.754 47.9305,141.421 46.5,141.5C 49.8456,149.868 55.5122,156.535 63.5,161.5C 63.1667,161.833 62.8333,162.167 62.5,162.5C 60.8087,160.744 58.8087,160.244 56.5,161C 54.9603,164.25 52.627,166.75 49.5,168.5C 48.6143,169.325 48.281,170.325 48.5,171.5C 46.5,171.5 44.5,171.5 42.5,171.5C 42.2267,173.451 42.8934,174.951 44.5,176C 43.6634,177.011 43.33,178.178 43.5,179.5C 44.8734,179.343 46.2068,179.51 47.5,180C 46.9558,180.717 46.2891,181.217 45.5,181.5C 44.788,182.739 43.788,183.239 42.5,183C 27.1097,170.162 16.2763,154.329 10,135.5C 2.80579,107.433 5.80579,80.766 19,55.5C 47.3853,13.2483 86.5519,-1.91837 136.5,10C 172.421,23.2501 194.921,48.4168 204,85.5C 210.688,124.207 199.522,156.54 170.5,182.5 Z M 137.5,18.5 C 138.309,19.4687 139.309,20.3021 140.5,21C 138.611,24.6167 136.611,28.1167 134.5,31.5C 133.369,29.9255 133.202,28.2588 134,26.5C 134.885,23.6654 136.052,20.9987 137.5,18.5 Z M 158.5,29.5 C 159.289,29.7828 159.956,30.2828 160.5,31C 159.062,32.5686 157.562,34.0686 156,35.5C 155.034,32.6603 155.867,30.6603 158.5,29.5 Z M 55.5,43.5 C 56.404,44.209 56.7373,45.209 56.5,46.5C 51.5475,46.8098 51.2142,45.8098 55.5,43.5 Z M 105.5,42.5 C 109.496,43.1692 113.496,44.0026 117.5,45C 118.167,46 118.833,47 119.5,48C 114.167,48.6667 108.833,48.6667 103.5,48C 105.155,46.5557 105.822,44.7224 105.5,42.5 Z M 66.5,22.5 C 71.9579,25.9907 73.1246,30.3241 70,35.5C 64.6108,32.1129 63.4442,27.7796 66.5,22.5 Z M 174.5,46.5 C 170.944,47.7768 170.11,46.7768 172,43.5C 173.045,44.3734 173.878,45.3734 174.5,46.5 Z M 128.5,49.5 C 129.077,48.2267 129.743,48.2267 130.5,49.5C 130.03,50.463 129.363,50.463 128.5,49.5 Z M 166.5,48.5 C 167.267,49.172 167.934,50.0053 168.5,51C 167.167,51.6667 167.167,52.3333 168.5,53C 164.195,53.2223 163.529,51.7223 166.5,48.5 Z M 101.5,56.5 C 109.847,56.7189 118.18,57.2189 126.5,58C 130.554,59.4013 133.554,62.0679 135.5,66C 129.742,66.5639 124.075,66.0639 118.5,64.5C 117.757,61.4304 115.757,59.7637 112.5,59.5C 112.286,61.1439 112.62,62.6439 113.5,64C 109.434,64.5165 105.434,65.3498 101.5,66.5C 100.833,66.1667 100.167,65.8333 99.5,65.5C 100.933,62.667 101.6,59.667 101.5,56.5 Z M 172.5,57.5 C 172.483,59.0281 171.816,59.5281 170.5,59C 171.044,58.2828 171.711,57.7828 172.5,57.5 Z M 26.5,59.5 C 31.4261,59.2302 35.0928,61.2302 37.5,65.5C 37.5,67.5 36.5,68.5 34.5,68.5C 29.6292,67.3041 26.9626,64.3041 26.5,59.5 Z M 182.5,59.5 C 184.028,59.5173 184.528,60.184 184,61.5C 180.189,62.9662 179.689,62.2996 182.5,59.5 Z M 143.5,64.5 C 143.735,63.9033 144.235,63.5699 145,63.5C 149.624,64.8812 153.124,67.7146 155.5,72C 152.975,71.2447 150.308,70.4113 147.5,69.5C 146.867,67.2145 145.534,65.5478 143.5,64.5 Z M 174.5,64.5 C 175.713,65.4971 175.546,66.4971 174,67.5C 173.53,66.4232 173.697,65.4232 174.5,64.5 Z M 97.5,77.5 C 103.645,76.5098 109.978,76.1765 116.5,76.5C 116.15,80.0543 116.816,83.3876 118.5,86.5C 111.227,87.8279 103.893,88.4945 96.5,88.5C 97.0579,85.6557 97.7245,82.8224 98.5,80C 98.472,78.9302 98.1386,78.0968 97.5,77.5 Z M 190.5,76.5 C 192.465,76.9483 192.798,77.9483 191.5,79.5C 190.614,78.675 190.281,77.675 190.5,76.5 Z M 125.5,77.5 C 131.324,78.3607 136.991,79.8607 142.5,82C 143.653,84.6157 144.653,87.2824 145.5,90C 139.953,89.3055 134.287,88.4722 128.5,87.5C 127.749,84.0706 126.749,80.7373 125.5,77.5 Z M 154.5,86.5 C 154.56,85.9569 154.893,85.6236 155.5,85.5C 156.912,86.8064 158.579,87.6397 160.5,88C 161.98,90.559 163.313,93.2257 164.5,96C 161.682,95.0732 158.682,94.5732 155.5,94.5C 155.806,91.6146 155.473,88.9479 154.5,86.5 Z M 96.5,100.5 C 103.833,100.5 111.167,100.5 118.5,100.5C 118.5,103.5 118.5,106.5 118.5,109.5C 111.178,110.038 103.845,110.371 96.5,110.5C 96.5,107.167 96.5,103.833 96.5,100.5 Z M 130.5,103.5 C 136.234,102.563 141.901,103.396 147.5,106C 146.88,108.473 146.214,110.973 145.5,113.5C 140.4,112.748 135.4,111.581 130.5,110C 131.811,107.726 131.811,105.56 130.5,103.5 Z M 155.5,107.5 C 158.942,108.61 161.942,110.444 164.5,113C 163.528,115.111 162.695,117.278 162,119.5C 159.5,118.333 157,117.167 154.5,116C 155.444,113.281 155.777,110.448 155.5,107.5 Z M 24.5,120.5 C 26.5,120.5 28.5,120.5 30.5,120.5C 30.5,121.5 30.5,122.5 30.5,123.5C 28.8008,123.66 27.1341,123.494 25.5,123C 24.7476,122.329 24.4142,121.496 24.5,120.5 Z M 96.5,120.5 C 103.508,120.334 110.508,120.5 117.5,121C 118.059,121.725 118.392,122.558 118.5,123.5C 117.238,126.022 116.571,128.689 116.5,131.5C 110.138,131.645 103.805,131.811 97.5,132C 98.0585,131.275 98.3918,130.442 98.5,129.5C 97.4144,126.58 96.7477,123.58 96.5,120.5 Z M 16.5,122.5 C 17.8333,122.5 19.1667,122.5 20.5,122.5C 20.5,123.5 20.5,124.5 20.5,125.5C 19.1667,125.5 17.8333,125.5 16.5,125.5C 16.5,124.5 16.5,123.5 16.5,122.5 Z M 129.5,122.5 C 134.481,123.833 139.481,125.166 144.5,126.5C 143.167,129.167 141.833,131.833 140.5,134.5C 136.691,132.907 132.691,132.074 128.5,132C 127.978,131.439 127.645,130.772 127.5,130C 129.111,127.79 129.778,125.29 129.5,122.5 Z M 150.5,127.5 C 152.189,128.931 154.189,129.764 156.5,130C 157.357,130.689 158.023,131.522 158.5,132.5C 157.167,134.5 155.833,136.5 154.5,138.5C 151.905,137.149 149.238,135.983 146.5,135C 148.496,132.838 149.83,130.338 150.5,127.5 Z M 114.5,157.5 C 117.841,152.156 121.175,146.822 124.5,141.5C 131.929,143.074 139.262,145.074 146.5,147.5C 146.833,147.833 147.167,148.167 147.5,148.5C 140.488,156.04 132.155,161.374 122.5,164.5C 122.892,158.389 120.225,156.055 114.5,157.5 Z M 96.5,162.5 C 97.3058,163.997 97.9724,165.664 98.5,167.5C 97.4239,168.656 96.4239,168.489 95.5,167C 96.3802,165.644 96.7135,164.144 96.5,162.5 Z M 103.5,166.5 C 104.978,166.238 106.311,166.571 107.5,167.5C 106.833,167.833 106.167,168.167 105.5,168.5C 104.287,168.253 103.62,167.586 103.5,166.5 Z"/></g>
<g><path style="opacity:0.882" fill="#99b7fe" d="M 311.5,48.5 C 313.026,47.8953 314.026,46.7286 314.5,45C 317.227,44.1816 319.894,44.3483 322.5,45.5C 327.522,50.7059 327.522,55.8725 322.5,61C 318.779,63.5272 314.779,65.5272 310.5,67C 308.627,68.7038 306.96,70.5372 305.5,72.5C 310.821,69.8393 316.155,67.1726 321.5,64.5C 326.317,65.2558 327.651,67.9225 325.5,72.5C 324.15,73.9501 322.484,74.6168 320.5,74.5C 320.703,76.3904 320.037,77.8904 318.5,79C 323.759,79.5814 325.926,82.4147 325,87.5C 323.64,89.1054 322.14,90.6054 320.5,92C 312.948,94.8702 306.448,99.3702 301,105.5C 298.194,118.99 296.861,132.657 297,146.5C 295.2,149.977 293.867,153.644 293,157.5C 291.229,162.208 288.063,163.542 283.5,161.5C 282.88,158.722 282.547,155.889 282.5,153C 283.457,140.573 284.79,128.24 286.5,116C 285.833,115.333 285.167,115.333 284.5,116C 279.609,122.33 273.442,126.83 266,129.5C 257.607,127.176 256.44,123.009 262.5,117C 272.813,113.901 280.98,107.734 287,98.5C 287.667,97.1667 287.667,95.8333 287,94.5C 277.638,102.871 267.471,110.038 256.5,116C 245.512,118.049 243.179,114.716 249.5,106C 263.852,99.403 277.019,90.903 289,80.5C 289.667,79.5 289.667,78.5 289,77.5C 285.167,80 282,83.1667 279.5,87C 274.565,88.2017 270.232,90.535 266.5,94C 263.854,94.4974 261.187,94.6641 258.5,94.5C 258.337,92.1432 258.503,89.8098 259,87.5C 260.487,86.8448 261.653,85.8448 262.5,84.5C 259.748,81.2396 259.914,78.2396 263,75.5C 263.333,73.5 263.667,71.5 264,69.5C 268.59,66.1208 273.09,62.6208 277.5,59C 275.179,56.2265 272.179,54.7265 268.5,54.5C 268.167,53.5 267.833,52.5 267.5,51.5C 269.142,43.2683 269.976,34.935 270,26.5C 275.226,21.3312 280.56,21.3312 286,26.5C 286.333,30.5 286.667,34.5 287,38.5C 289.292,37.2101 291.292,35.5435 293,33.5C 296.125,25.874 298.125,17.874 299,9.5C 304.283,4.03626 308.95,4.70293 313,11.5C 314.276,17.1235 313.443,22.2901 310.5,27C 312.134,27.4935 313.801,27.6602 315.5,27.5C 315.813,30.2469 315.48,32.9135 314.5,35.5C 311.571,37.1483 308.571,38.6483 305.5,40C 310.282,40.8187 312.282,43.6521 311.5,48.5 Z M 299.5,44.5 C 299.783,43.7109 300.283,43.0442 301,42.5C 301.528,43.816 301.028,44.4827 299.5,44.5 Z M 299.5,44.5 C 297.193,47.9956 293.86,49.9956 289.5,50.5C 291.955,47.2173 295.289,45.2173 299.5,44.5 Z M 311.5,48.5 C 309.871,53.1096 306.871,56.4429 302.5,58.5C 301.692,58.1924 301.025,57.6924 300.5,57C 304.681,54.6304 308.348,51.7971 311.5,48.5 Z M 283.5,68.5 C 285.331,66.2513 287.664,65.0846 290.5,65C 288.473,66.8793 286.14,68.046 283.5,68.5 Z M 283.5,68.5 C 283.179,70.0481 282.179,70.7148 280.5,70.5C 280.973,69.0937 281.973,68.427 283.5,68.5 Z M 280.5,70.5 C 279.998,72.0847 278.998,72.5847 277.5,72C 278.244,70.9614 279.244,70.4614 280.5,70.5 Z M 305.5,72.5 C 305.217,73.2891 304.717,73.9558 304,74.5C 303.472,73.184 303.972,72.5173 305.5,72.5 Z M 307.5,81.5 C 309.814,82.1787 310.147,83.512 308.5,85.5C 306.295,87.3462 303.961,89.0128 301.5,90.5C 300.417,89.635 300.251,88.635 301,87.5C 302.86,85.0523 305.027,83.0523 307.5,81.5 Z"/></g>
<g><path style="opacity:0.636" fill="#99b7fd" d="M 94.5,9.5 C 98.1667,9.5 101.833,9.5 105.5,9.5C 103.82,14.6098 103.153,19.9431 103.5,25.5C 105.167,25.5 106.833,25.5 108.5,25.5C 108.608,20.1301 108.275,14.7968 107.5,9.5C 110.167,9.5 112.833,9.5 115.5,9.5C 114.066,15.3757 113.232,21.3757 113,27.5C 108.299,32.4263 103.299,32.7597 98,28.5C 96.9227,22.1434 95.7561,15.81 94.5,9.5 Z"/></g>
<g><path style="opacity:0.914" fill="#99b7fe" d="M 648.5,55.5 C 651.715,54.8926 654.715,53.7259 657.5,52C 666.875,48.2207 674.208,50.3874 679.5,58.5C 679.5,60.8333 679.5,63.1667 679.5,65.5C 676.529,67.6573 673.529,69.8239 670.5,72C 665.347,74.9392 660.014,77.4392 654.5,79.5C 653.228,79.4302 652.062,79.0968 651,78.5C 650.192,76.4213 650.359,74.4213 651.5,72.5C 669.062,60.3718 667.396,58.2052 646.5,66C 634.033,71.1332 623.199,78.6332 614,88.5C 611.121,94.0263 608.288,99.5263 605.5,105C 597.896,106.705 592.563,104.038 589.5,97C 593.173,91.6306 596.506,85.9639 599.5,80C 598.924,78.2856 597.757,77.1189 596,76.5C 595.5,75 595,73.5 594.5,72C 597.307,64.2187 599.973,56.3853 602.5,48.5C 604.681,43.4641 607.681,38.9641 611.5,35C 619.018,34.6846 621.018,37.8513 617.5,44.5C 617.833,45.1667 618.167,45.8333 618.5,46.5C 620.591,41.3783 624.257,39.7116 629.5,41.5C 630.213,43.7759 630.713,46.1093 631,48.5C 634.516,46.0736 637.849,43.407 641,40.5C 646.764,31.4068 653.264,22.9068 660.5,15C 666.284,13.4914 671.117,14.9914 675,19.5C 675.798,21.2588 675.631,22.9255 674.5,24.5C 663.255,32.6493 654.588,42.9826 648.5,55.5 Z M 648.5,55.5 C 648.483,57.0281 647.816,57.5281 646.5,57C 647.044,56.2828 647.711,55.7828 648.5,55.5 Z M 629.5,57.5 C 632.001,57.5109 632.168,58.1776 630,59.5C 629.536,58.9056 629.369,58.2389 629.5,57.5 Z M 627.5,59.5 C 628.234,61.8232 627.568,63.9899 625.5,66C 621.105,69.4354 616.438,72.102 611.5,74C 612.701,73.0975 613.535,71.9308 614,70.5C 614.198,67.2979 615.031,64.2979 616.5,61.5C 620.818,64.4364 624.485,63.7698 627.5,59.5 Z"/></g>
<g><path style="opacity:0.563" fill="#98b5fd" d="M 167.5,35.5 C 165.801,35.3398 164.134,35.5065 162.5,36C 158.081,40.0392 153.081,42.7058 147.5,44C 147.043,43.586 146.709,43.086 146.5,42.5C 148.57,36.7258 149.57,30.7258 149.5,24.5C 148.167,24.5 146.833,24.5 145.5,24.5C 145.046,28.3664 143.712,31.8664 141.5,35C 142.38,36.3561 142.714,37.8561 142.5,39.5C 137.627,38.3177 132.96,36.4844 128.5,34C 126.477,30.2701 124.644,26.4367 123,22.5C 122.727,24.3289 121.893,25.8289 120.5,27C 122.211,28.1332 122.711,29.6332 122,31.5C 119.646,31.8916 117.146,31.8916 114.5,31.5C 115.642,26.9668 116.975,22.4668 118.5,18C 117.923,15.863 117.59,13.6963 117.5,11.5C 119.857,11.3367 122.19,11.5034 124.5,12C 126.461,15.4212 128.294,18.9212 130,22.5C 130.638,21.3914 131.138,20.2247 131.5,19C 130.115,17.4029 129.449,15.5695 129.5,13.5C 132.271,13.4207 134.937,13.9207 137.5,15C 143.438,17.2232 149.105,19.8899 154.5,23C 158.15,26.8047 162.483,29.638 167.5,31.5C 168.626,32.8084 168.626,34.1417 167.5,35.5 Z M 137.5,18.5 C 136.052,20.9987 134.885,23.6654 134,26.5C 133.202,28.2588 133.369,29.9255 134.5,31.5C 136.611,28.1167 138.611,24.6167 140.5,21C 139.309,20.3021 138.309,19.4687 137.5,18.5 Z M 158.5,29.5 C 155.867,30.6603 155.034,32.6603 156,35.5C 157.562,34.0686 159.062,32.5686 160.5,31C 159.956,30.2828 159.289,29.7828 158.5,29.5 Z"/></g>
<g><path style="opacity:0.862" fill="#99b7fe" d="M 394.5,35.5 C 402.805,37.7967 404.638,42.7967 400,50.5C 397.092,52.8812 395.092,55.8812 394,59.5C 388.099,66.3987 381.266,72.2321 373.5,77C 371.449,81.0573 368.116,82.5573 363.5,81.5C 363.201,79.396 363.534,77.396 364.5,75.5C 370.408,67.4181 376.908,59.7514 384,52.5C 387.507,46.8147 391.007,41.1481 394.5,35.5 Z"/></g>
<g><path style="opacity:0.77" fill="#98b6fd" d="M 167.5,35.5 C 168.873,35.3433 170.207,35.51 171.5,36C 174.855,39.3551 178.188,42.6884 181.5,46C 181.05,47.2853 180.383,48.452 179.5,49.5C 176.676,50.7742 174.009,52.2742 171.5,54C 172.337,55.0113 172.67,56.1779 172.5,57.5C 175.609,56.2921 178.609,54.7921 181.5,53C 181.043,52.586 180.709,52.086 180.5,51.5C 181.833,50.1667 183.167,50.1667 184.5,51.5C 187.424,54.8472 189.424,58.6805 190.5,63C 190.39,65.2552 189.39,66.9219 187.5,68C 185.1,68.1858 182.766,68.6858 180.5,69.5C 179.572,70.7678 179.405,72.1011 180,73.5C 180.414,73.0426 180.914,72.7093 181.5,72.5C 181.531,84.5016 182.864,84.5016 185.5,72.5C 189.947,69.4357 193.78,70.1023 197,74.5C 197.696,77.4781 198.196,80.4781 198.5,83.5C 195.518,83.8273 192.685,83.8273 190,83.5C 188.111,86.6888 185.278,88.1888 181.5,88C 184.167,88.6667 186.833,88.6667 189.5,88C 192.884,86.8781 196.218,85.7114 199.5,84.5C 201.158,94.406 201.825,104.406 201.5,114.5C 198.833,114.5 196.167,114.5 193.5,114.5C 193.137,112.089 194.137,110.589 196.5,110C 191.574,108.964 186.907,109.464 182.5,111.5C 181.914,111.291 181.414,110.957 181,110.5C 180.502,107.183 180.335,103.85 180.5,100.5C 185.805,101.442 191.139,101.609 196.5,101C 194.137,100.411 193.137,98.9115 193.5,96.5C 195.527,96.6621 197.527,96.4955 199.5,96C 193.335,93.4543 187.669,94.2877 182.5,98.5C 181.833,98.1667 181.167,97.8333 180.5,97.5C 178.84,94.2302 178.506,90.8969 179.5,87.5C 175.948,81.7431 173.948,75.4098 173.5,68.5C 172.178,68.67 171.011,68.3366 170,67.5C 166.784,60.6193 162.117,54.9527 156,50.5C 155.51,49.2068 155.343,47.8734 155.5,46.5C 157.288,46.7852 158.955,46.4519 160.5,45.5C 162.516,43.316 164.683,41.316 167,39.5C 167.49,38.2068 167.657,36.8734 167.5,35.5 Z M 174.5,46.5 C 173.878,45.3734 173.045,44.3734 172,43.5C 170.11,46.7768 170.944,47.7768 174.5,46.5 Z M 166.5,48.5 C 163.529,51.7223 164.195,53.2223 168.5,53C 167.167,52.3333 167.167,51.6667 168.5,51C 167.934,50.0053 167.267,49.172 166.5,48.5 Z M 172.5,57.5 C 171.711,57.7828 171.044,58.2828 170.5,59C 171.816,59.5281 172.483,59.0281 172.5,57.5 Z M 182.5,59.5 C 179.689,62.2996 180.189,62.9662 184,61.5C 184.528,60.184 184.028,59.5173 182.5,59.5 Z M 174.5,64.5 C 173.697,65.4232 173.53,66.4232 174,67.5C 175.546,66.4971 175.713,65.4971 174.5,64.5 Z M 190.5,76.5 C 190.281,77.675 190.614,78.675 191.5,79.5C 192.798,77.9483 192.465,76.9483 190.5,76.5 Z"/></g>
<g><path style="opacity:0.858" fill="#99b7fd" d="M 170.5,182.5 C 169.934,185.649 167.6,187.316 163.5,187.5C 162.656,185.241 160.989,184.241 158.5,184.5C 158.838,181.989 158.838,179.655 158.5,177.5C 158.449,183.067 155.949,184.734 151,182.5C 147.644,177.597 145.811,172.264 145.5,166.5C 147.5,166.167 149.5,165.833 151.5,165.5C 151.662,163.473 151.495,161.473 151,159.5C 130.415,175.344 107.582,179.511 82.5,172C 77.3018,170.151 72.4685,167.651 68,164.5C 66.9738,168.519 65.1404,172.019 62.5,175C 62.9574,175.414 63.2907,175.914 63.5,176.5C 61.8442,178.329 59.8442,179.663 57.5,180.5C 58.661,182.378 57.9944,183.378 55.5,183.5C 54.3527,183.182 53.5194,182.516 53,181.5C 51.1667,183.333 49.3333,185.167 47.5,187C 50.9879,188.999 54.3212,191.166 57.5,193.5C 57.6107,194.117 57.944,194.617 58.5,195C 57.1667,195.333 55.8333,195.667 54.5,196C 55.5358,197.617 56.7025,197.784 58,196.5C 58.813,198.436 59.313,200.436 59.5,202.5C 51.0213,198.677 43.3547,193.677 36.5,187.5C 36.3505,186.448 36.5172,185.448 37,184.5C 38.3518,186.432 40.1851,187.766 42.5,188.5C 43.5063,188.062 43.5063,187.396 42.5,186.5C 43.325,185.614 44.325,185.281 45.5,185.5C 45.5,184.167 45.5,182.833 45.5,181.5C 46.2891,181.217 46.9558,180.717 47.5,180C 46.2068,179.51 44.8734,179.343 43.5,179.5C 43.33,178.178 43.6634,177.011 44.5,176C 42.8934,174.951 42.2267,173.451 42.5,171.5C 44.5,171.5 46.5,171.5 48.5,171.5C 48.281,170.325 48.6143,169.325 49.5,168.5C 52.627,166.75 54.9603,164.25 56.5,161C 58.8087,160.244 60.8087,160.744 62.5,162.5C 62.8333,162.167 63.1667,161.833 63.5,161.5C 55.5122,156.535 49.8456,149.868 46.5,141.5C 47.9305,141.421 49.2638,141.754 50.5,142.5C 61.1334,157.328 75.4667,165.495 93.5,167C 92.6198,165.644 92.2865,164.144 92.5,162.5C 90.6536,162.778 89.3202,162.111 88.5,160.5C 90.322,158.99 92.322,157.657 94.5,156.5C 95.5,157.167 96.5,157.833 97.5,158.5C 100.279,156.014 103.112,156.014 106,158.5C 107.491,156.996 109.324,156.163 111.5,156C 111.043,155.586 110.709,155.086 110.5,154.5C 112.22,149.869 113.554,145.203 114.5,140.5C 96.9992,138.447 80.4992,141.113 65,148.5C 62.5,147.667 62,146.167 63.5,144C 72.7866,139.434 82.4533,136.267 92.5,134.5C 91.2034,130.647 90.2034,126.647 89.5,122.5C 75.2542,123.06 61.9208,126.727 49.5,133.5C 48.3192,131.865 48.3192,130.198 49.5,128.5C 61.6528,121.585 74.3195,116.085 87.5,112C 86.0293,108.679 85.3626,105.179 85.5,101.5C 70.7558,102.911 56.9225,106.911 44,113.5C 41.5661,114.322 39.0661,114.656 36.5,114.5C 36.33,113.178 36.6634,112.011 37.5,111C 51.5201,102.151 66.5201,95.8179 82.5,92C 84.2148,91.2229 85.2148,89.8895 85.5,88C 85.9566,84.9148 86.6233,81.9148 87.5,79C 80.305,78.5879 73.305,79.5879 66.5,82C 59.33,85.0782 51.9967,87.9115 44.5,90.5C 44.393,88.0968 45.393,86.2635 47.5,85C 60.8171,76.6677 75.1504,71.1677 90.5,68.5C 90.4714,64.8605 91.4714,61.5272 93.5,58.5C 92.1667,58.1667 90.8333,57.8333 89.5,57.5C 78.711,59.8715 68.0443,62.8715 57.5,66.5C 57.2965,64.6096 57.9632,63.1096 59.5,62C 70.9356,55.3826 83.2689,51.0493 96.5,49C 98.6033,47.3096 100.603,45.4763 102.5,43.5C 101.333,43.1667 100.167,42.8333 99,42.5C 78.3823,44.1315 61.7157,53.1315 49,69.5C 48.586,69.0426 48.086,68.7093 47.5,68.5C 43.0676,71.4823 38.2343,73.4823 33,74.5C 22.7435,72.6477 19.4102,66.981 23,57.5C 29.9378,51.789 36.2711,52.4557 42,59.5C 42.1667,58.8333 42.3333,58.1667 42.5,57.5C 40.2454,54.0751 37.412,51.0751 34,48.5C 32.8904,50.0368 31.3904,50.7035 29.5,50.5C 29.238,49.0222 29.5713,47.6888 30.5,46.5C 32.758,43.2177 35.758,41.2177 39.5,40.5C 39.3573,42.2624 39.6906,43.9291 40.5,45.5C 42.8333,47.5 45.1667,49.5 47.5,51.5C 47.8333,50.6667 48.1667,49.8333 48.5,49C 46.3068,43.3541 44.9735,37.5208 44.5,31.5C 50.5249,33.959 56.5249,36.6257 62.5,39.5C 62.8333,39.1667 63.1667,38.8333 63.5,38.5C 56.5799,33.2453 55.9132,27.4119 61.5,21C 71.1243,16.2328 77.1243,19.2328 79.5,30C 77.4338,37.5517 72.4338,41.0517 64.5,40.5C 64.7093,41.086 65.0426,41.586 65.5,42C 58.2892,46.6709 52.2892,52.5042 47.5,59.5C 46.1502,60.9501 44.4835,61.6168 42.5,61.5C 42.281,62.675 42.6143,63.675 43.5,64.5C 45.8929,62.6369 48.5596,61.3035 51.5,60.5C 69.1081,40.8763 91.1081,32.7097 117.5,36C 154.41,44.7297 174.077,67.8963 176.5,105.5C 176.34,124.453 169.674,140.787 156.5,154.5C 157.348,156.409 157.682,158.409 157.5,160.5C 159.792,160.244 161.959,160.577 164,161.5C 163.057,164.707 162.723,168.041 163,171.5C 163.561,170.978 164.228,170.645 165,170.5C 168.908,172.064 169.408,174.397 166.5,177.5C 167.309,179.731 168.643,181.398 170.5,182.5 Z M 55.5,43.5 C 51.2142,45.8098 51.5475,46.8098 56.5,46.5C 56.7373,45.209 56.404,44.209 55.5,43.5 Z M 105.5,42.5 C 105.822,44.7224 105.155,46.5557 103.5,48C 108.833,48.6667 114.167,48.6667 119.5,48C 118.833,47 118.167,46 117.5,45C 113.496,44.0026 109.496,43.1692 105.5,42.5 Z M 66.5,22.5 C 63.4442,27.7796 64.6108,32.1129 70,35.5C 73.1246,30.3241 71.9579,25.9907 66.5,22.5 Z M 128.5,49.5 C 129.363,50.463 130.03,50.463 130.5,49.5C 129.743,48.2267 129.077,48.2267 128.5,49.5 Z M 101.5,56.5 C 101.6,59.667 100.933,62.667 99.5,65.5C 100.167,65.8333 100.833,66.1667 101.5,66.5C 105.434,65.3498 109.434,64.5165 113.5,64C 112.62,62.6439 112.286,61.1439 112.5,59.5C 115.757,59.7637 117.757,61.4304 118.5,64.5C 124.075,66.0639 129.742,66.5639 135.5,66C 133.554,62.0679 130.554,59.4013 126.5,58C 118.18,57.2189 109.847,56.7189 101.5,56.5 Z M 26.5,59.5 C 26.9626,64.3041 29.6292,67.3041 34.5,68.5C 36.5,68.5 37.5,67.5 37.5,65.5C 35.0928,61.2302 31.4261,59.2302 26.5,59.5 Z M 143.5,64.5 C 145.534,65.5478 146.867,67.2145 147.5,69.5C 150.308,70.4113 152.975,71.2447 155.5,72C 153.124,67.7146 149.624,64.8812 145,63.5C 144.235,63.5699 143.735,63.9033 143.5,64.5 Z M 97.5,77.5 C 98.1386,78.0968 98.472,78.9302 98.5,80C 97.7245,82.8224 97.0579,85.6557 96.5,88.5C 103.893,88.4945 111.227,87.8279 118.5,86.5C 116.816,83.3876 116.15,80.0543 116.5,76.5C 109.978,76.1765 103.645,76.5098 97.5,77.5 Z M 125.5,77.5 C 126.749,80.7373 127.749,84.0706 128.5,87.5C 134.287,88.4722 139.953,89.3055 145.5,90C 144.653,87.2824 143.653,84.6157 142.5,82C 136.991,79.8607 131.324,78.3607 125.5,77.5 Z M 154.5,86.5 C 155.473,88.9479 155.806,91.6146 155.5,94.5C 158.682,94.5732 161.682,95.0732 164.5,96C 163.313,93.2257 161.98,90.559 160.5,88C 158.579,87.6397 156.912,86.8064 155.5,85.5C 154.893,85.6236 154.56,85.9569 154.5,86.5 Z M 96.5,100.5 C 96.5,103.833 96.5,107.167 96.5,110.5C 103.845,110.371 111.178,110.038 118.5,109.5C 118.5,106.5 118.5,103.5 118.5,100.5C 111.167,100.5 103.833,100.5 96.5,100.5 Z M 130.5,103.5 C 131.811,105.56 131.811,107.726 130.5,110C 135.4,111.581 140.4,112.748 145.5,113.5C 146.214,110.973 146.88,108.473 147.5,106C 141.901,103.396 136.234,102.563 130.5,103.5 Z M 155.5,107.5 C 155.777,110.448 155.444,113.281 154.5,116C 157,117.167 159.5,118.333 162,119.5C 162.695,117.278 163.528,115.111 164.5,113C 161.942,110.444 158.942,108.61 155.5,107.5 Z M 96.5,120.5 C 96.7477,123.58 97.4144,126.58 98.5,129.5C 98.3918,130.442 98.0585,131.275 97.5,132C 103.805,131.811 110.138,131.645 116.5,131.5C 116.571,128.689 117.238,126.022 118.5,123.5C 118.392,122.558 118.059,121.725 117.5,121C 110.508,120.5 103.508,120.334 96.5,120.5 Z M 129.5,122.5 C 129.778,125.29 129.111,127.79 127.5,130C 127.645,130.772 127.978,131.439 128.5,132C 132.691,132.074 136.691,132.907 140.5,134.5C 141.833,131.833 143.167,129.167 144.5,126.5C 139.481,125.166 134.481,123.833 129.5,122.5 Z M 150.5,127.5 C 149.83,130.338 148.496,132.838 146.5,135C 149.238,135.983 151.905,137.149 154.5,138.5C 155.833,136.5 157.167,134.5 158.5,132.5C 158.023,131.522 157.357,130.689 156.5,130C 154.189,129.764 152.189,128.931 150.5,127.5 Z M 114.5,157.5 C 120.225,156.055 122.892,158.389 122.5,164.5C 132.155,161.374 140.488,156.04 147.5,148.5C 147.167,148.167 146.833,147.833 146.5,147.5C 139.262,145.074 131.929,143.074 124.5,141.5C 121.175,146.822 117.841,152.156 114.5,157.5 Z M 96.5,162.5 C 96.7135,164.144 96.3802,165.644 95.5,167C 96.4239,168.489 97.4239,168.656 98.5,167.5C 97.9724,165.664 97.3058,163.997 96.5,162.5 Z M 103.5,166.5 C 103.62,167.586 104.287,168.253 105.5,168.5C 106.167,168.167 106.833,167.833 107.5,167.5C 106.311,166.571 104.978,166.238 103.5,166.5 Z"/></g>
<g><path style="opacity:0.92" fill="#9ab7fe" d="M 535.5,44.5 C 540.353,44.2388 544.853,45.2388 549,47.5C 549.85,49.01 550.683,50.51 551.5,52C 550.129,54.3187 549.462,56.8187 549.5,59.5C 555.47,60.329 561.137,61.9956 566.5,64.5C 566.953,67.6521 565.953,70.1521 563.5,72C 550.201,74.0987 537.534,78.2653 525.5,84.5C 522.929,92.6862 518.762,100.02 513,106.5C 510.035,113.181 505.868,119.014 500.5,124C 490.841,127.162 487.174,123.995 489.5,114.5C 495.278,106.214 501.278,98.0477 507.5,90C 501.815,90.8101 496.148,91.9768 490.5,93.5C 485.113,93.2906 482.946,90.624 484,85.5C 493.423,81.1346 503.256,77.6346 513.5,75C 520.115,67.6102 525.615,59.4435 530,50.5C 532.09,48.5837 533.923,46.5837 535.5,44.5 Z M 539.5,64.5 C 540.289,64.7828 540.956,65.2828 541.5,66C 539.924,66.4396 538.59,67.273 537.5,68.5C 537.167,68.1667 536.833,67.8333 536.5,67.5C 537.34,66.265 538.34,65.265 539.5,64.5 Z"/></g>
<g><path style="opacity:0.862" fill="#99b7fe" d="M 413.5,68.5 C 417.217,67.4726 420.55,65.6393 423.5,63C 432.367,60.4101 441.2,57.9101 450,55.5C 454.574,55.9953 456.074,58.3286 454.5,62.5C 449.746,64.6325 444.746,66.1325 439.5,67C 434.916,69.2547 430.25,71.4214 425.5,73.5C 427.902,73.5221 430.568,73.6888 433.5,74C 435.464,76.3122 435.797,78.8122 434.5,81.5C 432.581,82.6125 430.914,83.9458 429.5,85.5C 435.452,84.2634 441.119,82.2634 446.5,79.5C 451.355,80.1897 454.021,83.023 454.5,88C 451.13,95.0509 447.296,101.884 443,108.5C 440.049,115.4 437.383,122.4 435,129.5C 431.911,134.585 427.578,138.252 422,140.5C 419.889,139.528 417.722,138.695 415.5,138C 413.517,133.352 411.183,128.852 408.5,124.5C 406.695,120.112 408.195,117.445 413,116.5C 415.487,118.271 417.654,120.438 419.5,123C 421.167,123.667 422.833,123.667 424.5,123C 426.24,118.77 427.74,114.604 429,110.5C 423.409,115.588 417.242,116.754 410.5,114C 407.654,110.166 408.321,106.999 412.5,104.5C 413.246,103.264 413.579,101.93 413.5,100.5C 411.097,100.393 409.264,101.393 408,103.5C 407.667,106.5 407.333,109.5 407,112.5C 403.958,115.082 400.958,115.082 398,112.5C 398.951,120.271 395.785,125.771 388.5,129C 387.101,129.595 385.768,129.428 384.5,128.5C 383.343,125.216 383.176,121.882 384,118.5C 386.18,113.782 387.513,108.782 388,103.5C 388.923,102.241 389.757,100.908 390.5,99.5C 393.14,98.6648 395.807,98.4981 398.5,99C 400.688,95.9782 403.355,93.4782 406.5,91.5C 404.135,89.4123 403.135,86.7456 403.5,83.5C 397.383,89.4455 390.55,94.4455 383,98.5C 381.555,106.309 379.888,114.309 378,122.5C 372.998,128.729 367.665,129.062 362,123.5C 360.772,117.517 362.439,112.517 367,108.5C 368.984,100.067 371.15,91.7337 373.5,83.5C 378.898,80.7005 381.898,82.3672 382.5,88.5C 383.675,88.719 384.675,88.3857 385.5,87.5C 388.873,82.8038 392.54,78.4704 396.5,74.5C 390.808,74.3737 389.142,71.7071 391.5,66.5C 404.647,56.8596 414.647,44.6929 421.5,30C 424.76,29.2165 427.927,29.3832 431,30.5C 431.661,33.7338 432.827,36.7338 434.5,39.5C 434.26,41.89 433.26,43.89 431.5,45.5C 432,45.8333 432.5,46.1667 433,46.5C 435.77,45.0674 438.27,43.2341 440.5,41C 446.946,39.6316 450.279,42.1316 450.5,48.5C 441.255,52.4186 431.922,56.2519 422.5,60C 419.043,62.3868 416.043,65.2202 413.5,68.5 Z M 413.5,68.5 C 413.483,70.0281 412.816,70.5281 411.5,70C 412.044,69.2828 412.711,68.7828 413.5,68.5 Z M 399.5,72.5 C 399.517,70.9719 400.184,70.4719 401.5,71C 400.956,71.7172 400.289,72.2172 399.5,72.5 Z M 399.5,72.5 C 399.027,73.9063 398.027,74.573 396.5,74.5C 396.973,73.0937 397.973,72.427 399.5,72.5 Z M 420.5,74.5 C 421.552,74.3505 422.552,74.5172 423.5,75C 421.788,76.7509 419.788,77.4175 417.5,77C 418.571,76.1482 419.571,75.3149 420.5,74.5 Z M 403.5,83.5 C 404.002,81.9153 405.002,81.4153 406.5,82C 405.756,83.0386 404.756,83.5386 403.5,83.5 Z M 418.5,84.5 C 418.328,86.4918 418.995,88.1585 420.5,89.5C 418.262,90.9689 415.929,91.8022 413.5,92C 412.833,91.3333 412.167,90.6667 411.5,90C 413.996,88.3335 416.329,86.5002 418.5,84.5 Z M 429.5,85.5 C 428.486,86.6737 427.153,87.3404 425.5,87.5C 426.183,85.8235 427.517,85.1568 429.5,85.5 Z M 433.5,93.5 C 435.225,93.8425 435.725,94.8425 435,96.5C 431.922,99.2523 428.589,101.586 425,103.5C 425.667,101.833 425.667,100.167 425,98.5C 427.97,96.9156 430.803,95.2489 433.5,93.5 Z"/></g>
<g><path style="opacity:0.636" fill="#98b6fd" d="M 31.5,75.5 C 33.604,75.2011 35.604,75.5344 37.5,76.5C 35.8702,79.2761 35.2035,82.2761 35.5,85.5C 33.5165,85.6168 31.8498,84.9501 30.5,83.5C 27.7939,85.9232 28.4606,87.0898 32.5,87C 33.433,90.3405 32.433,93.1739 29.5,95.5C 32.1667,99.8333 32.1667,104.167 29.5,108.5C 22.9829,109.18 16.6495,110.013 10.5,111C 9.97814,110.439 9.6448,109.772 9.5,109C 11.0855,106.744 11.7521,104.244 11.5,101.5C 16.26,103.24 21.26,103.906 26.5,103.5C 26.5,101.833 26.5,100.167 26.5,98.5C 21.453,98.3375 16.453,98.6708 11.5,99.5C 11.5,96.5 11.5,93.5 11.5,90.5C 16.7958,91.7623 22.1292,93.0956 27.5,94.5C 27.8333,94.1667 28.1667,93.8333 28.5,93.5C 25.0061,90.1756 21.3394,87.009 17.5,84C 16.552,83.5172 15.552,83.3505 14.5,83.5C 14.5,81.5 14.5,79.5 14.5,77.5C 18.8461,77.6657 23.1794,77.499 27.5,77C 29.0581,76.79 30.3915,76.29 31.5,75.5 Z"/></g>
<g><path style="opacity:0.887" fill="#9ab8fe" d="M 642.5,79.5 C 646.492,79.9115 649.159,81.9115 650.5,85.5C 648.14,89.3694 645.973,93.3694 644,97.5C 643.505,99.4727 643.338,101.473 643.5,103.5C 646.715,102.893 649.715,101.726 652.5,100C 660.474,99.0588 664.307,102.559 664,110.5C 659.797,112.789 655.297,114.289 650.5,115C 648.359,116.308 646.359,117.808 644.5,119.5C 642.607,128.427 641.107,137.427 640,146.5C 638.31,150.532 635.81,154.032 632.5,157C 629.471,157.501 626.804,156.668 624.5,154.5C 623.609,150.391 621.942,146.724 619.5,143.5C 620.862,138.149 623.862,137.149 628.5,140.5C 628.833,140.167 629.167,139.833 629.5,139.5C 630.345,135.729 631.178,132.062 632,128.5C 629.16,133.45 624.993,134.784 619.5,132.5C 616.184,130.559 615.184,127.893 616.5,124.5C 622.485,119.015 628.319,113.348 634,107.5C 634.498,104.518 634.665,101.518 634.5,98.5C 631.318,99.8263 627.985,100.326 624.5,100C 618.813,97.2307 618.146,93.564 622.5,89C 629.611,86.6095 636.278,83.4428 642.5,79.5 Z"/></g>
<g><path style="opacity:0.952" fill="#99b7fe" d="M 520.5,99.5 C 523.518,99.3354 526.518,99.502 529.5,100C 533.694,104.694 538.361,108.861 543.5,112.5C 545.569,117.485 544.236,121.318 539.5,124C 536.827,125.704 533.993,126.871 531,127.5C 528.966,127.646 527.299,126.98 526,125.5C 524.781,119.093 522.448,113.093 519,107.5C 518.363,104.59 518.863,101.923 520.5,99.5 Z"/></g>
<g><path style="opacity:0.709" fill="#9bb9fd" d="M 311.5,103.5 C 324.299,104.746 326.633,110.246 318.5,120C 314.695,121.173 311.861,120.007 310,116.5C 308.096,113.378 307.429,110.045 308,106.5C 309.518,105.837 310.685,104.837 311.5,103.5 Z"/></g>
<g><path style="opacity:0.687" fill="#99b6fd" d="M 29.5,110.5 C 32.4689,110.939 33.1355,112.439 31.5,115C 33.1159,120.39 34.4492,125.89 35.5,131.5C 30.902,130.816 26.2353,130.983 21.5,132C 19.6313,133.602 17.6313,134.602 15.5,135C 14.3848,131.114 13.2181,127.28 12,123.5C 11.502,120.518 11.3354,117.518 11.5,114.5C 15.7025,115.114 20.0358,114.947 24.5,114C 26.4308,113.098 28.0975,111.931 29.5,110.5 Z M 24.5,120.5 C 24.4142,121.496 24.7476,122.329 25.5,123C 27.1341,123.494 28.8008,123.66 30.5,123.5C 30.5,122.5 30.5,121.5 30.5,120.5C 28.5,120.5 26.5,120.5 24.5,120.5 Z M 16.5,122.5 C 16.5,123.5 16.5,124.5 16.5,125.5C 17.8333,125.5 19.1667,125.5 20.5,125.5C 20.5,124.5 20.5,123.5 20.5,122.5C 19.1667,122.5 17.8333,122.5 16.5,122.5 Z"/></g>
<g><path style="opacity:0.642" fill="#99b7fd" d="M 179.5,116.5 C 181.906,118.211 184.573,119.545 187.5,120.5C 192.179,118.937 196.845,117.604 201.5,116.5C 200.424,119.734 199.757,123.068 199.5,126.5C 197.801,126.38 196.135,126.046 194.5,125.5C 193.833,125.833 193.167,126.167 192.5,126.5C 194.045,127.452 195.712,127.785 197.5,127.5C 197.5,130.5 197.5,133.5 197.5,136.5C 196.07,136.579 194.736,136.246 193.5,135.5C 191.877,132.379 189.71,129.712 187,127.5C 183.843,126.363 180.677,126.363 177.5,127.5C 177.848,123.742 178.515,120.076 179.5,116.5 Z"/></g>
<g><path style="opacity:0.702" fill="#99b7fd" d="M 351.5,171.5 C 366.969,172.763 372.136,180.763 367,195.5C 365.363,197.81 363.196,199.31 360.5,200C 362.534,202.579 365.201,204.246 368.5,205C 369.833,206 369.833,207 368.5,208C 364.095,208.696 359.761,208.363 355.5,207C 351.318,202.651 346.985,198.485 342.5,194.5C 341.338,189.869 341.172,185.202 342,180.5C 344.482,176.511 347.648,173.511 351.5,171.5 Z M 352.5,177.5 C 355.044,177.104 357.211,177.771 359,179.5C 359.667,184.5 359.667,189.5 359,194.5C 356.267,196.891 353.6,196.891 351,194.5C 348.837,188.522 349.337,182.855 352.5,177.5 Z"/></g>
<g><path style="opacity:0.691" fill="#99b7fd" d="M 614.5,197.5 C 612.862,198.657 611.196,199.824 609.5,201C 602.24,200.927 594.907,200.927 587.5,201C 584.657,198.489 582.157,195.656 580,192.5C 579.268,194.706 579.935,196.372 582,197.5C 582.49,198.793 582.657,200.127 582.5,201.5C 569.309,201.044 555.976,201.044 542.5,201.5C 542.284,199.319 543.117,197.653 545,196.5C 545.5,190.175 545.666,183.842 545.5,177.5C 543.856,177.286 542.356,177.62 541,178.5C 537.575,185.19 534.908,192.19 533,199.5C 531.556,201.155 529.722,201.822 527.5,201.5C 524.825,193.799 521.825,186.132 518.5,178.5C 516.833,177.167 515.167,177.167 513.5,178.5C 514.833,183.833 514.833,189.167 513.5,194.5C 515.854,196.246 516.854,198.579 516.5,201.5C 511.5,201.5 506.5,201.5 501.5,201.5C 500.923,198.45 502.09,196.45 505,195.5C 505.499,189.509 505.666,183.509 505.5,177.5C 503.396,177.201 501.396,177.534 499.5,178.5C 500.765,186.153 500.765,193.82 499.5,201.5C 498.448,201.649 497.448,201.483 496.5,201C 491.323,195.822 486.49,190.322 482,184.5C 481.333,188.167 481.333,191.833 482,195.5C 484.91,196.45 486.077,198.45 485.5,201.5C 481.5,201.5 477.5,201.5 473.5,201.5C 473.498,199.169 474.331,197.169 476,195.5C 476.499,189.509 476.666,183.509 476.5,177.5C 475.167,177.5 473.833,177.5 472.5,177.5C 472.666,182.844 472.499,188.177 472,193.5C 468.527,201.095 462.694,203.595 454.5,201C 452.308,199.641 450.641,197.808 449.5,195.5C 448.231,189.95 448.231,184.45 449.5,179C 446.801,177.423 446.134,175.257 447.5,172.5C 451.817,173.689 456.15,173.689 460.5,172.5C 460.5,174.167 460.5,175.833 460.5,177.5C 459.5,177.5 458.5,177.5 457.5,177.5C 457.334,183.176 457.501,188.843 458,194.5C 460.957,196.077 463.624,195.744 466,193.5C 466.499,188.177 466.666,182.844 466.5,177.5C 461.951,177.068 461.451,175.401 465,172.5C 471.005,172.585 477.172,173.252 483.5,174.5C 487.186,178.352 490.686,182.352 494,186.5C 494.498,183.518 494.665,180.518 494.5,177.5C 493.5,177.5 492.5,177.5 491.5,177.5C 491.5,175.833 491.5,174.167 491.5,172.5C 504.063,173.721 516.563,173.721 529,172.5C 529.678,174.902 529.178,177.068 527.5,179C 528.615,181.688 529.948,184.188 531.5,186.5C 532.387,184.117 533.387,181.784 534.5,179.5C 532.303,177.185 532.136,174.852 534,172.5C 544.663,173.124 555.496,173.457 566.5,173.5C 567.092,176.127 567.425,178.794 567.5,181.5C 566.5,181.5 565.5,181.5 564.5,181.5C 564.18,184.898 564.513,188.232 565.5,191.5C 566.736,190.754 568.07,190.421 569.5,190.5C 569.149,192.869 568.982,195.203 569,197.5C 569.308,196.692 569.808,196.025 570.5,195.5C 571.496,189.537 571.829,183.537 571.5,177.5C 570.5,177.5 569.5,177.5 568.5,177.5C 568.215,175.712 568.548,174.045 569.5,172.5C 575.783,173.294 582.116,173.794 588.5,174C 594.021,179.36 593.688,184.36 587.5,189C 588.985,191.477 590.819,193.644 593,195.5C 593.5,195.167 594,194.833 594.5,194.5C 593.754,193.264 593.421,191.93 593.5,190.5C 595.5,190.5 597.5,190.5 599.5,190.5C 599.951,194.726 602.284,196.559 606.5,196C 607.022,195.439 607.355,194.772 607.5,194C 604.159,190.245 600.326,187.078 596,184.5C 594.37,178.661 596.203,174.495 601.5,172C 604.275,171.222 606.775,171.722 609,173.5C 610.567,172.144 612.4,171.477 614.5,171.5C 614.5,175.5 614.5,179.5 614.5,183.5C 611.376,183.057 609.043,181.39 607.5,178.5C 605.955,177.548 604.288,177.215 602.5,177.5C 602.281,178.675 602.614,179.675 603.5,180.5C 607.193,182.518 610.693,184.851 614,187.5C 615.695,190.789 615.862,194.122 614.5,197.5 Z M 554.5,177.5 C 556.857,177.337 559.19,177.503 561.5,178C 562.5,180.091 561.833,181.757 559.5,183C 557.866,183.494 556.199,183.66 554.5,183.5C 555.38,181.389 555.38,179.389 554.5,177.5 Z M 579.5,177.5 C 581.973,177.736 583.64,179.069 584.5,181.5C 583.625,183.773 581.958,184.773 579.5,184.5C 579.5,182.167 579.5,179.833 579.5,177.5 Z M 554.5,188.5 C 558.241,187.599 560.241,188.932 560.5,192.5C 564.29,192.008 564.956,192.841 562.5,195C 559.773,195.818 557.106,195.652 554.5,194.5C 555.623,192.518 555.623,190.518 554.5,188.5 Z"/></g>
<g><path style="opacity:0.641" fill="#99b7fd" d="M 679.5,173.5 C 679.5,174.833 679.5,176.167 679.5,177.5C 675.26,181.319 672.593,185.985 671.5,191.5C 672.279,194.988 673.279,198.321 674.5,201.5C 669.5,201.5 664.5,201.5 659.5,201.5C 659.498,199.169 660.331,197.169 662,195.5C 662.667,192.833 662.667,190.167 662,187.5C 659.636,184.301 657.47,180.968 655.5,177.5C 654.524,184.886 652.191,185.219 648.5,178.5C 647.675,177.614 646.675,177.281 645.5,177.5C 645.334,183.509 645.501,189.509 646,195.5C 648.46,196.755 649.627,198.755 649.5,201.5C 644.5,201.5 639.5,201.5 634.5,201.5C 634.128,198.978 634.961,196.978 637,195.5C 637.19,189.584 637.69,183.751 638.5,178C 635.51,177.332 633.51,178.498 632.5,181.5C 631.311,182.429 629.978,182.762 628.5,182.5C 628.785,180.712 628.452,179.045 627.5,177.5C 627.167,177.833 626.833,178.167 626.5,178.5C 627.128,184.478 627.794,190.478 628.5,196.5C 630.217,197.668 630.884,199.335 630.5,201.5C 625.167,201.5 619.833,201.5 614.5,201.5C 614.5,200.167 614.5,198.833 614.5,197.5C 615.496,197.586 616.329,197.252 617,196.5C 618.01,189.358 617.51,182.358 615.5,175.5C 615.556,174.263 616.056,173.263 617,172.5C 633.317,173.634 649.817,173.634 666.5,172.5C 667.812,174.736 667.479,176.736 665.5,178.5C 666.646,179.719 667.646,181.052 668.5,182.5C 669.5,181.167 670.5,179.833 671.5,178.5C 669.055,176.636 668.888,174.636 671,172.5C 673.719,173.444 676.552,173.777 679.5,173.5 Z"/></g>
<g><path style="opacity:0.506" fill="#99b6fd" d="M 83.5,177.5 C 86.4797,178.025 89.313,178.025 92,177.5C 93.8773,178.253 95.7107,179.086 97.5,180C 97.9679,181.822 98.3012,183.989 98.5,186.5C 96.8008,186.34 95.1341,186.506 93.5,187C 96.1997,187.949 97.033,189.783 96,192.5C 93.8042,195.025 91.6376,197.525 89.5,200C 86.5243,200.757 84.691,199.591 84,196.5C 81.2501,197.291 78.4168,197.291 75.5,196.5C 76.176,191.792 77.176,187.125 78.5,182.5C 80.9456,181.476 82.6123,179.809 83.5,177.5 Z"/></g>
<g><path style="opacity:0.479" fill="#9ab6fd" d="M 258.5,172.5 C 262.502,173.76 266.502,173.76 270.5,172.5C 272.217,173.668 272.884,175.335 272.5,177.5C 271.5,177.5 270.5,177.5 269.5,177.5C 269.5,179.833 269.5,182.167 269.5,184.5C 271.833,184.5 274.167,184.5 276.5,184.5C 276.5,182.167 276.5,179.833 276.5,177.5C 275.5,177.5 274.5,177.5 273.5,177.5C 273.5,175.833 273.5,174.167 273.5,172.5C 282.599,172.932 291.432,172.932 300,172.5C 301.892,173.617 302.725,175.284 302.5,177.5C 301.127,177.343 299.793,177.51 298.5,178C 299.475,183.741 299.808,189.575 299.5,195.5C 302.983,196.084 305.983,195.251 308.5,193C 307.188,188.197 307.188,183.364 308.5,178.5C 307.311,177.571 305.978,177.238 304.5,177.5C 304.116,175.335 304.783,173.668 306.5,172.5C 309.167,173.833 311.833,173.833 314.5,172.5C 316.217,173.668 316.884,175.335 316.5,177.5C 315.5,177.5 314.5,177.5 313.5,177.5C 313.666,183.176 313.499,188.843 313,194.5C 309.488,201.193 303.988,203.36 296.5,201C 294.91,199.954 293.41,198.787 292,197.5C 290.671,190.908 290.171,184.241 290.5,177.5C 288.5,177.5 286.5,177.5 284.5,177.5C 284.334,183.509 284.501,189.509 285,195.5C 287.265,196.916 288.431,198.916 288.5,201.5C 278.402,200.637 268.402,200.637 258.5,201.5C 259.987,194.12 260.987,186.62 261.5,179C 259.162,177.492 258.162,175.325 258.5,172.5 Z M 275.5,188.5 C 277.295,192.382 276.461,195.715 273,198.5C 272,197.833 271,197.167 270,196.5C 269.503,194.19 269.337,191.857 269.5,189.5C 271.735,189.795 273.735,189.461 275.5,188.5 Z"/></g>
<g><path style="opacity:0.646" fill="#99b8fd" d="M 420.5,171.5 C 434.451,172.379 439.951,179.712 437,193.5C 432.599,200.21 426.433,202.71 418.5,201C 408.113,193.91 406.78,185.41 414.5,175.5C 416.711,174.34 418.711,173.007 420.5,171.5 Z M 420.5,177.5 C 422.792,177.244 424.959,177.577 427,178.5C 427.631,181.393 428.464,184.226 429.5,187C 428.006,189.639 427.339,192.472 427.5,195.5C 424.315,195.98 421.481,195.314 419,193.5C 418.004,187.92 418.504,182.587 420.5,177.5 Z"/></g>
<g><path style="opacity:0.492" fill="#98b6fd" d="M 122.5,179.5 C 125.86,179.616 129.193,179.949 132.5,180.5C 132.643,182.262 132.309,183.929 131.5,185.5C 129.234,186.432 127.234,187.766 125.5,189.5C 127.304,190.768 129.304,191.435 131.5,191.5C 131.484,197.067 129.317,198.401 125,195.5C 123.974,198.693 121.808,200.026 118.5,199.5C 118.5,197.833 118.5,196.167 118.5,194.5C 117.5,194.5 116.5,194.5 115.5,194.5C 115.127,190.582 116.794,187.916 120.5,186.5C 121.421,184.223 122.087,181.89 122.5,179.5 Z"/></g>
<g><path style="opacity:0.487" fill="#99b6fd" d="M 324.5,172.5 C 326.5,172.5 328.5,172.5 330.5,172.5C 333.047,180.138 335.38,187.805 337.5,195.5C 340.779,196.031 342.113,198.031 341.5,201.5C 337.154,201.666 332.821,201.499 328.5,201C 327.633,198.684 328.299,196.684 330.5,195C 327.773,194.182 325.106,194.348 322.5,195.5C 324.086,197.173 324.753,199.173 324.5,201.5C 320.833,201.5 317.167,201.5 313.5,201.5C 318.099,192.396 321.765,182.729 324.5,172.5 Z M 324.5,186.5 C 326.337,186.639 326.67,187.306 325.5,188.5C 324.702,188.043 324.369,187.376 324.5,186.5 Z"/></g>
<g><path style="opacity:0.47" fill="#99b6fe" d="M 369.5,172.5 C 373.699,173.74 377.866,173.74 382,172.5C 383.269,173.905 383.769,175.571 383.5,177.5C 382.5,177.5 381.5,177.5 380.5,177.5C 380.334,183.509 380.501,189.509 381,195.5C 381.667,196.167 382.333,196.833 383,197.5C 384.097,195.947 385.43,194.614 387,193.5C 389.203,186.391 391.703,179.391 394.5,172.5C 396.981,172.323 398.814,173.323 400,175.5C 401.753,180.96 403.753,186.293 406,191.5C 406.943,194.109 408.61,196.109 411,197.5C 411.49,198.793 411.657,200.127 411.5,201.5C 406.5,201.5 401.5,201.5 396.5,201.5C 396.022,198.722 397.022,196.722 399.5,195.5C 396.833,194.167 394.167,194.167 391.5,195.5C 393.086,197.173 393.753,199.173 393.5,201.5C 385.167,201.5 376.833,201.5 368.5,201.5C 368.022,198.722 369.022,196.722 371.5,195.5C 372.496,189.537 372.829,183.537 372.5,177.5C 371.167,177.5 369.833,177.5 368.5,177.5C 368.366,175.708 368.699,174.042 369.5,172.5 Z M 394.5,186.5 C 396.337,186.639 396.67,187.306 395.5,188.5C 394.702,188.043 394.369,187.376 394.5,186.5 Z"/></g>
</svg>
